<?xml version="1.0" standalone="no"?><!DOCTYPE svg PUBLIC "-//W3C//DTD SVG 1.1//EN" "http://www.w3.org/Graphics/SVG/1.1/DTD/svg11.dtd"><svg t="1774028495352" class="icon" viewBox="0 0 1024 1024" version="1.1" xmlns="http://www.w3.org/2000/svg" p-id="2151" width="256" height="256" xmlns:xlink="http://www.w3.org/1999/xlink"><path d="M173.513204 492.994583c22.399536 16.332462 49.739769 26.70878 77.882119 25.932262-3.583926 32.33213 5.503886 60.303817 21.938745 87.626984-10.180056 19.651859-18.243889 41.923398-18.235355 64.322934l-38.5784 0.349859-5.922011 10.751777 48.118469 3.797255c5.657483 41.966064 37.562955 71.695581 76.252287 85.049971l-6.050008 47.939273-10.760311 5.896411c2.722077 6.527865 13.209326 4.616438 14.5149 5.862278 0.716785 0.691186 2.952472 14.4893 4.829766 19.267868 10.350719 26.393053 47.30782 60.099021 75.928027 64.945854 33.979029 5.742814 71.209191-5.452687 95.921212-28.850602h3.268199c58.238793 57.55614 156.63462 24.148833 176.457143-51.881592 20.078517 2.124756 39.073324 7.577443 59.254238-0.085331-1.75783-7.952902-7.54331-6.357202-12.961865-7.415313-14.088241-2.75621-28.543408-4.505507-42.571917-7.492112l-3.669258-47.939273c40.157034-10.76031 67.753262-44.71374 74.127531-85.305965 4.240979-0.247462 8.533156-0.29866 12.808268 0.059732 18.158557 1.527435 27.792491 3.686324 42.734047-7.534777 0.742385-0.554655 2.602613 0.494923 3.711923 0 29.90018 62.061647-2.363684 134.576411-66.712217 155.695973 13.635984 60.01369-30.625499 120.206575-91.688766 128.859196-19.651859 2.781809-35.489398-3.344997-54.492738-6.451066-5.247891 1.467703-11.972019 21.076897-16.963915 27.698626-48.775522 64.63866-151.813387 47.44435-178.214973-27.741292-13.013064-1.689565-25.932263 6.621729-38.663732 7.449446-43.135106 2.807408-91.117045-33.313443-105.017557-73.248616-6.126806-17.603902-10.453117-36.410979-4.693236-54.424472-1.262907-4.479907-29.41379-16.835918-36.752305-22.732329-37.452024-30.113509-49.859233-93.258867-26.111459-135.0884C135.421193 658.384222 110.948101 570.518309 153.289623 515.402652c6.10974-7.952902 15.513278-13.311724 20.240647-22.391003z" fill="#ED4953" p-id="2152"></path><path d="M737.196455 318.824326c0.341326 0.375459-0.290127 4.548172 1.851695 7.24465 4.932164 6.220671 11.716024 10.521382 16.170331 17.35644 24.012302 36.829103 19.890788 90.895183-6.067074 125.480066 5.085761 7.773706 11.101637 28.46661 20.027318 31.03509 6.391334 1.843162 32.528393 1.390905 40.267966 0.401058 14.412501-1.843162 24.106167-14.881825 38.996525-7.338514-15.863138 20.624639-52.999435 25.7104-77.882119 25.923729 2.824475 31.410549-1.484769 57.180682-18.132958 84.051592l14.523433 67.795928c10.222721-2.952472 20.223581 3.336464 27.894888 3.933785 7.227584 0.563188 25.983461-12.185347 23.926971 3.566859-14.933024 11.212568-24.575491 9.053679-42.734048 7.534778-4.275111-0.358393-8.567289-0.307194-12.808268-0.059733-6.365735 40.592225-33.961963 74.545655-74.12753 85.305966l3.669257 47.939273c14.028509 2.986605 28.483676 4.744435 42.571918 7.492111 5.418554 1.058111 11.204034-0.537589 12.961865 7.415313-20.180915 7.662775-39.167188 2.201554-59.254239 0.085332-19.822523 76.030424-118.209817 109.437732-176.457143 51.881591h-3.268199c-24.712021 23.397915-61.942183 34.593416-95.921212 28.850602-28.620207-4.8383-65.577308-38.552801-75.928026-64.945854-1.868761-4.770034-4.112981-18.576682-4.829767-19.267867-1.305573-1.254374-11.784289 0.657053-14.514899-5.862278l10.76031-5.896412 6.050008-47.939273c-38.697865-13.345857-70.594804-43.075374-76.252286-85.04997l-48.118469-3.797255 5.92201-10.751777 38.578401-0.34986c-0.008533-22.399536 8.046767-44.671074 18.235355-64.322933-16.426326-27.323167-25.514138-55.294854-21.938745-87.626984-28.14235 0.776517-55.491117-9.599801-77.88212-25.932263-2.184488-1.5957-2.926873-3.080469-3.711923-3.70339 3.080469-8.396626 11.43443-1.442103 16.067934 0.622921 21.179294 9.454737 43.143639 21.452355 66.678085 9.796064 10.538448-5.222292 7.696907-10.717645 11.852554-17.800165 2.645279-4.51404 9.830196-6.579064 9.471804-13.00453-24.822952-36.402446-32.110268-87.004064-7.125186-125.471533 2.867141-4.411642 17.970828-21.495021 21.73395-24.60109 5.264958-4.343377 22.860326-14.062642 29.618586-16.724987 39.926639-15.701008 81.901236-8.183297 113.54218 20.232114 9.00248 0.085332 14.293037-9.19021 20.104117-12.680271 42.332989-25.445873 96.134541-21.691284 131.837267 12.774136 18.19269-8.755019 38.348005-24.080568 58.895846-25.991995 35.173671-3.268199 55.542316 1.740764 84.708645 19.523862 3.490061 2.124756 9.659533 2.483149 10.009392 2.867141z m-133.501233 78.590371c0-51.198939-41.539406-92.712745-92.781011-92.712745s-92.78101 41.505273-92.78101 92.712745 41.539406 92.712745 92.78101 92.712745 92.78101-41.505273 92.781011-92.712745z m-181.867164-71.004395c-10.376318-2.807408-17.885496-10.674979-28.449544-14.207706-20.155316-6.741194-47.597947-5.026029-68.009257 0.870382-53.076233 15.342615-72.659827 96.330804-42.358589 139.056318 24.822952 34.994475 74.520056 49.936032 114.096835 32.68199 3.012204-1.314106 22.391003-12.799735 23.158987-13.909045 6.024408-8.661154-3.600992-13.149594-6.510798-19.728658-12.279212-27.732759-15.76074-62.769899-4.812701-91.646101 2.338085-6.160939 17.373507-29.208995 12.885067-33.125713z m178.197906-0.110931c-1.13491 12.330411 8.814751 22.211806 12.987465 33.236644 12.458408 32.861186 6.92039 73.496077-12.740003 102.474676-0.870382 5.017496 12.08295 16.366594 17.083379 19.174003 18.610814 10.444584 52.350915 13.712782 72.813425 7.440913 40.029037-12.270679 70.688668-58.759316 64.77519-100.452319-8.823284-62.240843-57.300146-84.213721-115.965596-76.69601-13.65305 1.749297-25.642135 12.304812-38.95386 14.822093z m-189.180079 170.398602c-41.351676 19.959053-89.128819 14.591698-124.225692-14.805027-48.630459 68.20552 8.37956 161.745981 92.004493 147.504143 7.773706-1.322639 37.400825-13.294658 39.397584-19.933453 3.327931-11.08457-5.640416-15.086621-9.16461-23.67951-6.050008-14.736761-7.432379-45.370793-5.350289-61.233931 1.203175-9.16461 8.609955-17.876963 7.347047-27.852222z m203.976573 3.711923c4.386042 26.068793 11.067504 49.06565 3.037804 75.296572-6.800926 22.237406-29.046865 30.907093 3.268198 46.232642 31.794541 15.086621 73.760605 9.403538 101.075239-12.38161 35.788058-28.543408 44.014021-90.357594 16.767652-127.68162-9.070745-0.017066-14.549032 9.343806-20.41131 12.876533-25.181345 15.13782-54.356207 18.943607-82.566822 12.279212-4.539639-1.075178-19.412931-8.447825-21.170761-6.621729z m-172.199098-14.762361C376.406066 561.063572 462.41175 670.509837 554.424776 627.187002c51.403735-24.200032 66.225827-98.600623 27.024507-139.969366-3.67779-2.261286-26.811178 12.850934-33.253711 15.163419-36.632841 13.175194-73.973934 3.635125-105.580745-16.742053z m298.276485 133.339103l-37.033899 20.428377c-18.610814 6.621729-37.486156 11.40883-57.436677 9.130477-12.236546-1.399438-23.483247-8.396626-35.318734-11.024838-1.43357 1.43357 10.205655 31.896939 11.024838 38.987992 1.570101 13.610385-1.663966 26.009061-5.375889 38.911194-2.457549 8.51609-12.390143 22.996857-7.671307 29.729517 71.610249 42.580451 149.73983-17.791631 139.175782-98.301963-1.186109-9.062212-8.456358-17.928162-7.364114-27.852223z m-330.05396 18.534016c-1.868761-1.902894-28.705538 10.180056-35.284602 11.050438-33.680369 4.48844-60.730475-10.000859-88.719228-25.812799-25.89813 32.886785-8.208897 90.0504 21.964345 114.873353 22.382469 18.414552 56.975886 26.70878 84.572114 17.672167 8.558756-2.798875 15.615676-9.770464 24.899751-10.342186-4.761501-15.820472-13.431188-29.004199-14.992756-46.155843-2.047958-22.416602 2.380751-40.105835 7.568909-61.293663z m28.031419-7.355581c-61.216865 78.547705 32.024936 180.211732 119.174064 134.055889 47.017692-24.899751 60.380615-91.594902 27.152504-132.374857-4.642037-4.633504-6.382801 0.32426-9.35234 1.928493-30.309772 16.38366-52.777573 25.300809-88.275504 17.859897-17.876963-3.746056-32.425995-14.13944-48.698724-21.477955z m64.843456 233.509827l8.857417 0.145064c45.421992 50.328557 129.46505 43.228971 156.062899-22.433668 5.290557-13.055729 8.917149-44.193217 5.196692-57.172149-2.619679-9.16461-16.340995-4.67617-23.713642-5.94761-19.412931-3.344997-38.757597-8.729419-55.687379-18.687613-6.792393-0.068265-9.924061 7.876103-14.770894 11.417364-48.220867 35.259003-105.119955 27.152504-148.877981-10.905374-23.807507 12.509607-46.360639 16.477525-73.36808 14.864758-19.754257 21.179294-5.008963 74.605387 12.594939 94.231647 17.271109 19.259334 54.509804 30.983891 79.733815 27.664494 14.668496-1.928493 51.019743-17.185777 53.989281-33.176913z" fill="#D4303A" p-id="2153"></path><path d="M262.514026 307.714156c-29.080997-38.074944-56.361499-81.500178-63.034427-129.695445 2.073557-2.457549 36.03552 27.84369 40.950618 31.33375 34.43982 24.515759 77.50666 44.056687 118.508477 53.886883-23.508846-42.204992-42.273257-88.121907-29.661252-137.093692l52.069321 57.274547 114.796554 72.412366c-0.674119-16.537257 0.998379-33.407308-0.068265-49.944565-2.645279-41.001817-14.736761-93.91592-30.395103-132.682051-7.765172-19.225202-41.786867-64.288801-4.164181-72.565962 14.079708-3.097536 20.863568 5.503886 26.683181 16.724986 7.048387 13.584785 16.358061 38.220008 21.076896 53.042101 16.742053 52.530111 23.602711 111.801416 20.317446 165.142178-0.418125 6.75826 0.042666 13.550652-0.068265 20.283313 4.138581 4.377509 18.295088-13.499454 22.408069-16.511658 42.350056-31.052156 114.472294-56.779623 136.402506-108.379621 2.150355-5.051629-0.255995-5.939077 8.072366-4.804167v61.140066c0 2.739143-10.674979 33.509706-12.919199 38.970926-5.145493 12.492541-12.782668 24.089101-20.445443 35.148072-0.571721 2.815942 3.575393 2.363684 5.529485 1.817562 9.770464-2.739143 25.352008-8.934215 35.318735-12.885066 44.892936-17.791631 86.312878-44.099353 122.314265-76.021892-7.969968 50.123761-35.694194 94.42791-66.74635 133.407369-7.236117 2.099156-14.81356 8.533156-22.254472 11.118703-0.349859-0.383992-6.519332-0.733851-10.009392-2.867141-29.166329-17.783098-49.534973-22.792061-84.708645-19.523862-20.547841 1.911427-40.71169 17.245509-58.895846 25.991995-35.702727-34.473952-89.504278-38.220008-131.837268-12.774135-5.802546 3.490061-11.093103 12.765602-20.104116 12.68027-31.640944-28.415411-73.615541-35.933122-113.54218-20.232114-6.75826 2.653812-24.353629 12.38161-29.618587 16.724987-7.765172-3.430329-17.885496-9.497403-25.957862-11.118703z" fill="#67A33A" p-id="2154"></path><path d="M759.450927 307.714156c74.255528-21.57182 139.209915 47.802743 129.738111 120.377238-2.722077 20.863568-19.174003 52.28265-37.085098 63.051494-1.937027 12.56934 3.370597 7.40678 9.48887 12.740002 10.308053 8.985414 23.30405 33.851032 26.87091 47.341953 11.221101 42.452454-7.944369 96.407602-46.079045 119.148464-6.860658 4.095915-13.798114 5.196692-19.890788 7.918769-1.100777 0.494923-2.969538-0.554655-3.711923 0 2.056491-15.752207-16.699387-3.003671-23.926971-3.56686-7.679841-0.597321-17.672167-6.886257-27.894888-3.933785l-14.523433-67.795928c16.648188-26.87091 20.957432-52.649576 18.132958-84.051591 24.882684-0.213329 62.018981-5.29909 77.882119-25.92373-14.890358-7.54331-24.584024 5.495353-38.996525 7.338515-7.739573 0.989846-33.876631 1.442103-40.267965-0.401059-8.925682-2.56848-14.941557-23.261385-20.027319-31.03509 25.966395-34.584883 30.079377-88.650963 6.067075-125.480066-4.454308-6.826525-11.2467-11.135769-16.170332-17.35644-2.141822-2.705011-1.510369-6.869191-1.851695-7.24465 7.440912-2.585546 15.009822-9.011013 22.254472-11.118703z" fill="#EC4853" p-id="2155"></path><path d="M262.514026 307.714156c8.072366 1.6213 18.19269 7.688374 25.957862 11.118703-3.763122 3.106069-18.866809 20.189448-21.733949 24.60109-24.976549 38.467469-17.697767 89.077621 7.125185 125.471533 0.358393 6.425467-6.817992 8.490491-9.471804 13.00453-4.155647 7.08252-1.314106 12.577873-11.852554 17.800165-23.534446 11.656292-45.49879-0.341326-66.678085-9.796064-4.633504-2.073557-12.987464-9.019546-16.067933-0.62292-58.119329-46.778764-43.937223-148.169729 25.906663-176.073151 19.62626-7.841971 46.693432-9.548602 66.797549-5.512419z" fill="#ED4953" p-id="2156"></path><path d="M503.72076 863.6749c-2.969538 15.999668-39.320785 31.256952-53.989281 33.176913-25.215477 3.310865-62.462705-8.413692-79.733814-27.664494-17.595369-19.617727-32.340663-73.052353-12.594939-94.231647 27.00744 1.612767 49.569106-2.355151 73.36808-14.864758 43.758026 38.057878 100.657114 46.164377 148.877981 10.905374 4.846833-3.54126 7.987034-11.485629 14.770894-11.417364 16.929782 9.958194 36.282981 15.342615 55.687379 18.687613 7.372647 1.27144 21.093963-3.208467 23.713642 5.94761 3.720456 12.978931 0.093865 44.116419-5.196693 57.172149-26.597849 65.662639-110.640907 72.770758-156.062898 22.433668l-8.857417-0.145064z" fill="#EC4751" p-id="2157"></path><path d="M418.133201 397.414697a92.78101 92.712745 0 1 0 185.562021 0 92.78101 92.712745 0 1 0-185.562021 0Z" fill="#EB4752" p-id="2158"></path><path d="M421.828058 326.410302c4.48844 3.916719-10.546981 26.973308-12.885067 33.125713-10.94804 28.884735-7.466512 63.913342 4.812701 91.646101 2.909806 6.57053 12.54374 11.067504 6.510798 19.728658-0.767984 1.10931-20.155316 12.594939-23.158987 13.909045-39.57678 17.245509-89.282416 2.312485-114.096835-32.68199-30.301239-42.725515-10.717645-123.713703 42.358589-139.056318 20.41131-5.904944 47.853942-7.611576 68.009257-0.870382 10.564048 3.532727 18.073225 11.391764 28.449544 14.207706zM600.025964 326.299371c13.320257-2.517281 25.300809-13.072796 38.95386-14.822093 58.665451-7.517711 107.142313 14.455167 115.965596 76.69601 5.913477 41.693003-24.746154 88.181639-64.77519 100.452319-20.462509 6.27187-54.20261 3.003671-72.813425-7.440913-5.00043-2.807408-17.962294-14.156507-17.083379-19.174003 19.660393-28.978599 25.198411-69.613491 12.740003-102.474676-4.181247-11.016305-14.122374-20.906233-12.987465-33.236644z" fill="#EB4852" p-id="2159"></path><path d="M442.62336 485.647535c31.606812 20.377178 68.947904 29.917247 105.580745 16.742053 6.434-2.312485 29.567387-17.424706 33.253711-15.163419 39.192788 41.368743 24.379228 115.769334-27.024507 139.969366-92.013026 43.314302-178.018711-66.131963-111.801416-141.539467z" fill="#EC4752" p-id="2160"></path><path d="M438.877304 630.165073c16.264196 7.338515 30.821761 17.731899 48.698724 21.477955 35.506464 7.440912 57.965732-1.484769 88.275504-17.859896 2.969538-1.604233 4.710302-6.561997 9.35234-1.928494 33.228111 40.779955 19.865188 107.475106-27.152504 132.374857-87.149127 46.14731-180.390928-55.508183-119.174064-134.055889z" fill="#EB4751" p-id="2161"></path><path d="M614.822458 500.409896c1.766363-1.826095 16.631122 5.555085 21.170761 6.621729 28.210615 6.655862 57.385477 2.858607 82.566822-12.279212 5.862279-3.524194 11.340565-12.893599 20.41131-12.876533 27.246369 37.324026 19.020406 99.146745-16.767652 127.68162-27.314634 21.785149-69.280697 27.468231-101.075239 12.38161-32.315064-15.334082-10.069125-23.995236-3.268198-46.232642 8.0297-26.230923 1.348239-49.236313-3.037804-75.296572z" fill="#EC4853" p-id="2162"></path><path d="M410.845885 496.697973c1.27144 9.97526-6.143873 18.687613-7.347048 27.852222-2.08209 15.854605-0.699719 46.49717 5.35029 61.233931 3.532727 8.592889 12.501074 12.594939 9.16461 23.67951-1.996759 6.638796-31.623878 18.610814-39.397584 19.933453-83.6164 14.241838-140.634952-79.298623-92.004493-147.504143 35.096873 29.396724 82.874016 34.76408 124.225692 14.805027z" fill="#EB4852" p-id="2163"></path><path d="M740.899845 618.986638c-1.100777 9.924061 6.169472 18.790011 7.364114 27.852223 10.564048 80.510331-67.565533 140.882414-139.175782 98.301963-4.718836-6.73266 5.213759-21.204894 7.671307-29.729518 3.720456-12.902133 6.945989-25.300809 5.375889-38.911193-0.819183-7.091053-12.449875-37.554422-11.024838-38.987992 11.835488 2.628212 23.073655 9.625401 35.318734 11.024838 19.959053 2.278353 38.825862-2.508748 57.436677-9.130477l37.033899-20.428377z" fill="#EC4751" p-id="2164"></path><path d="M410.845885 637.520654c-5.179626 21.187828-9.616867 38.885594-7.56891 61.293663 1.561568 17.151645 10.231255 30.335371 14.992756 46.155843-9.284074 0.563188-16.340995 7.534777-24.89975 10.342186-27.596228 9.036613-62.198178 0.742385-84.572114-17.672167-30.173241-24.822952-47.862475-81.986567-21.964345-114.873353 27.988753 15.811939 55.038859 30.292706 88.719228 25.812799 6.579064-0.878915 33.424374-12.953332 35.284602-11.050438z" fill="#EB4751" p-id="2165"></path></svg>